<?xml version="1.0" standalone="no"?>
<!DOCTYPE svg PUBLIC "-//W3C//DTD SVG 20010904//EN"
 "http://www.w3.org/TR/2001/REC-SVG-20010904/DTD/svg10.dtd">
<svg version="1.0" xmlns="http://www.w3.org/2000/svg"
 width="260.000000pt" height="260.000000pt" viewBox="0 0 260.000000 260.000000"
 preserveAspectRatio="xMidYMid meet">
<metadata>
Created by potrace 1.11, written by Peter Selinger 2001-2013
</metadata>
<g transform="translate(0.000000,260.000000) scale(0.100000,-0.100000)"
fill="#000000" stroke="none">
<path d="M280 1745 c0 -10 10 -15 33 -15 68 0 67 8 67 -432 0 -370 -1 -396
-18 -411 -10 -10 -33 -17 -50 -17 -22 0 -32 -5 -32 -15 0 -13 27 -15 181 -15
140 0 180 3 177 13 -3 6 -13 13 -24 15 -53 8 -63 14 -73 43 -15 44 -15 734 0
778 10 29 20 35 73 43 11 2 21 9 24 16 3 9 -37 12 -177 12 -154 0 -181 -2
-181 -15z"/>
<path d="M740 1745 c0 -10 10 -15 33 -15 68 0 67 9 67 -433 l0 -396 -22 -15
c-12 -9 -35 -16 -50 -16 -18 0 -28 -5 -28 -15 0 -13 45 -15 346 -15 l347 0 -7
61 c-3 34 -6 100 -6 146 0 102 -17 109 -36 15 -19 -91 -50 -143 -104 -169 -37
-19 -60 -23 -145 -23 -72 0 -107 4 -121 14 -18 14 -19 32 -22 388 -2 251 0
385 8 410 11 37 17 42 74 50 11 2 21 9 24 16 3 9 -37 12 -177 12 -154 0 -181
-2 -181 -15z"/>
<path d="M1492 1748 c3 -7 18 -15 34 -16 62 -7 61 -3 67 -345 5 -358 11 -389
80 -464 54 -59 107 -82 204 -90 127 -9 223 29 279 111 47 68 55 130 61 436 2
163 9 297 15 313 7 17 20 29 37 33 44 9 51 13 51 24 0 6 -48 10 -131 10 -100
0 -130 -3 -127 -12 3 -7 21 -16 42 -19 76 -12 85 -45 85 -319 1 -310 -19 -413
-92 -477 -84 -73 -234 -72 -296 4 -47 57 -53 95 -58 396 -7 369 -2 397 73 397
24 0 34 5 34 15 0 13 -27 15 -181 15 -140 0 -180 -3 -177 -12z"/>
</g>
</svg>
